<svg width="65" height="65" viewBox="0 0 65 65" fill="none" xmlns="http://www.w3.org/2000/svg">
<path fill-rule="evenodd" clip-rule="evenodd" d="M32.22 64.064C49.8931 64.064 64.22 49.7371 64.22 32.064C64.22 14.3909 49.8931 0.0639648 32.22 0.0639648C14.5469 0.0639648 0.219971 14.3909 0.219971 32.064C0.219971 49.7371 14.5469 64.064 32.22 64.064ZM52.7 52.544H32.2199C20.9092 52.544 11.74 43.3748 11.74 32.064C11.74 20.7532 20.9092 11.584 32.22 11.584C43.5308 11.584 52.7 20.7532 52.7 32.064V52.544Z" fill="#0E1420"/>
<path d="M32.22 64.064H64.22V32.064C64.22 49.7371 49.8931 64.064 32.22 64.064Z" fill="#0E1420"/>
</svg>
