<svg width="24" height="24" viewBox="0 0 24 24" fill="none" xmlns="http://www.w3.org/2000/svg">
<g id="Logo">
<g id="Logo_2">
<path fill-rule="evenodd" clip-rule="evenodd" d="M12 24C18.6274 24 24 18.6274 24 12C24 5.37258 18.6274 0 12 0C5.37258 0 0 5.37258 0 12C0 18.6274 5.37258 24 12 24ZM19.68 19.68H12C7.75845 19.68 4.32 16.2415 4.32 12C4.32 7.75845 7.75845 4.32 12 4.32C16.2415 4.32 19.68 7.75845 19.68 12V19.68Z" fill="#0E1420"/>
<path d="M12 24H24V12C24 18.6274 18.6274 24 12 24Z" fill="#0E1420"/>
</g>
</g>
</svg>
