<svg width="281" height="91" viewBox="0 0 281 91" fill="none" xmlns="http://www.w3.org/2000/svg">
<path fill-rule="evenodd" clip-rule="evenodd" d="M32.22 77.064C49.8931 77.064 64.22 62.7371 64.22 45.064C64.22 27.3909 49.8931 13.064 32.22 13.064C14.5469 13.064 0.219971 27.3909 0.219971 45.064C0.219971 62.7371 14.5469 77.064 32.22 77.064ZM52.7 65.544H32.2199C20.9092 65.544 11.74 56.3748 11.74 45.064C11.74 33.7532 20.9092 24.584 32.22 24.584C43.5308 24.584 52.7 33.7532 52.7 45.064V65.544Z" fill="#0E1420"/>
<path d="M32.22 77.064H64.22V45.064C64.22 62.7371 49.8931 77.064 32.22 77.064Z" fill="#0E1420"/>
<path d="M86.6 22.644H94.46V58.944H115.58V66.564H86.6V22.644ZM121.265 53.364C121.265 50.724 121.885 48.364 123.125 46.284C124.365 44.204 126.085 42.564 128.285 41.364C130.525 40.164 133.085 39.564 135.965 39.564C138.885 39.564 141.425 40.164 143.585 41.364C145.745 42.564 147.405 44.204 148.565 46.284C149.725 48.364 150.305 50.724 150.305 53.364C150.305 55.964 149.705 58.324 148.505 60.444C147.345 62.524 145.685 64.184 143.525 65.424C141.405 66.624 138.845 67.224 135.845 67.224C133.045 67.224 130.545 66.684 128.345 65.604C126.145 64.484 124.405 62.884 123.125 60.804C121.885 58.724 121.265 56.244 121.265 53.364ZM128.945 53.424C128.945 54.824 129.245 56.104 129.845 57.264C130.445 58.424 131.245 59.344 132.245 60.024C133.285 60.704 134.445 61.044 135.725 61.044C137.805 61.044 139.465 60.324 140.705 58.884C141.985 57.404 142.625 55.584 142.625 53.424C142.625 51.224 141.985 49.404 140.705 47.964C139.465 46.484 137.805 45.744 135.725 45.744C134.445 45.744 133.285 46.084 132.245 46.764C131.245 47.444 130.445 48.364 129.845 49.524C129.245 50.684 128.945 51.984 128.945 53.424ZM178.892 64.224C177.732 65.144 176.312 65.884 174.632 66.444C172.952 66.964 171.272 67.224 169.592 67.224C166.712 67.224 164.172 66.684 161.972 65.604C159.812 64.524 158.132 62.964 156.932 60.924C155.732 58.884 155.132 56.444 155.132 53.604C155.132 50.764 155.772 48.344 157.052 46.344C158.332 44.304 160.012 42.744 162.092 41.664C164.212 40.584 166.452 40.044 168.812 40.044C171.092 40.044 173.072 40.364 174.752 41.004C176.432 41.604 177.872 42.404 179.072 43.404L175.352 48.324C174.752 47.844 173.952 47.384 172.952 46.944C171.952 46.464 170.812 46.224 169.532 46.224C168.252 46.224 167.092 46.544 166.052 47.184C165.052 47.824 164.252 48.704 163.652 49.824C163.052 50.944 162.752 52.204 162.752 53.604C162.752 54.964 163.052 56.224 163.652 57.384C164.292 58.504 165.172 59.404 166.292 60.084C167.452 60.724 168.772 61.044 170.252 61.044C171.212 61.044 172.092 60.904 172.892 60.624C173.732 60.344 174.452 59.944 175.052 59.424L178.892 64.224ZM196.391 67.224C193.991 67.224 191.811 66.744 189.851 65.784C187.891 64.784 186.331 63.284 185.171 61.284C184.051 59.284 183.491 56.744 183.491 53.664C183.491 50.744 184.071 48.244 185.231 46.164C186.431 44.044 188.011 42.404 189.971 41.244C191.931 40.084 194.031 39.504 196.271 39.504C198.791 39.504 200.751 39.964 202.151 40.884C203.591 41.764 204.731 42.784 205.571 43.944L205.211 44.964L205.931 40.704H213.011V66.564H205.391V60.624L206.051 62.364C205.931 62.444 205.651 62.744 205.211 63.264C204.771 63.784 204.151 64.364 203.351 65.004C202.551 65.604 201.571 66.124 200.411 66.564C199.251 67.004 197.911 67.224 196.391 67.224ZM198.551 61.044C200.231 61.044 201.651 60.644 202.811 59.844C203.971 59.044 204.831 57.904 205.391 56.424V50.424C204.911 49.024 204.031 47.884 202.751 47.004C201.471 46.124 199.991 45.684 198.311 45.684C197.031 45.684 195.851 46.024 194.771 46.704C193.691 47.344 192.831 48.244 192.191 49.404C191.551 50.524 191.231 51.824 191.231 53.304C191.231 54.744 191.551 56.064 192.191 57.264C192.871 58.424 193.771 59.344 194.891 60.024C196.011 60.704 197.231 61.044 198.551 61.044ZM225.518 46.944C224.158 46.944 222.958 46.464 221.918 45.504C220.878 44.544 220.358 43.204 220.358 41.484V38.244H226.118V39.084C226.118 39.884 226.258 40.364 226.538 40.524C226.858 40.644 227.398 40.704 228.158 40.704H244.598L229.958 61.944L228.518 60.324H244.358V66.564H218.798L233.798 44.784L234.998 46.944H225.518ZM264.751 67.224C261.671 67.224 259.031 66.644 256.831 65.484C254.671 64.284 253.011 62.644 251.851 60.564C250.731 58.484 250.171 56.104 250.171 53.424C250.171 50.824 250.831 48.484 252.151 46.404C253.471 44.324 255.231 42.664 257.431 41.424C259.671 40.184 262.171 39.564 264.931 39.564C268.531 39.564 271.511 40.624 273.871 42.744C276.231 44.824 277.771 47.824 278.491 51.744L258.091 58.404L256.351 54.204L271.711 48.864L270.091 49.704C269.731 48.584 269.091 47.604 268.171 46.764C267.291 45.924 266.011 45.504 264.331 45.504C262.331 45.504 260.711 46.184 259.471 47.544C258.271 48.904 257.671 50.704 257.671 52.944C257.671 55.424 258.351 57.344 259.711 58.704C261.111 60.064 262.851 60.744 264.931 60.744C265.891 60.744 266.811 60.584 267.691 60.264C268.611 59.904 269.511 59.444 270.391 58.884L273.751 64.584C272.391 65.384 270.911 66.024 269.311 66.504C267.751 66.984 266.231 67.224 264.751 67.224Z" fill="#0E1420"/>
</svg>
