<svg width="16" height="16" viewBox="0 0 16 16" fill="none" xmlns="http://www.w3.org/2000/svg">
<path fill-rule="evenodd" clip-rule="evenodd" d="M12.5657 9.83588C12.8781 10.1483 12.8781 10.6548 12.5657 10.9672L8.5657 14.9672C8.25328 15.2797 7.74674 15.2797 7.43433 14.9672L3.43433 10.9672C3.12191 10.6548 3.12191 10.1483 3.43433 9.83588C3.74675 9.52346 4.25328 9.52346 4.5657 9.83588L8.00001 13.2702L11.4343 9.83588C11.7467 9.52346 12.2533 9.52346 12.5657 9.83588Z" fill="#888888"/>
<path fill-rule="evenodd" clip-rule="evenodd" d="M3.43431 6.16412C3.12189 5.8517 3.12189 5.34517 3.43431 5.03275L7.4343 1.03275C7.74672 0.720332 8.25326 0.720332 8.56567 1.03275L12.5657 5.03275C12.8781 5.34517 12.8781 5.8517 12.5657 6.16412C12.2533 6.47654 11.7467 6.47654 11.4343 6.16412L7.99999 2.72981L4.56568 6.16412C4.25326 6.47654 3.74673 6.47654 3.43431 6.16412Z" fill="#888888"/>
</svg>
