<svg width="16" height="16" viewBox="0 0 16 16" fill="none" xmlns="http://www.w3.org/2000/svg">
<path d="M4.00002 2.39844C3.11637 2.39844 2.40002 3.11478 2.40002 3.99844V5.59844C2.40002 6.48209 3.11637 7.19844 4.00002 7.19844H5.60002C6.48368 7.19844 7.20002 6.48209 7.20002 5.59844V3.99844C7.20002 3.11478 6.48368 2.39844 5.60002 2.39844H4.00002Z" fill="#ACACAC"/>
<path d="M4.00002 8.79844C3.11637 8.79844 2.40002 9.51478 2.40002 10.3984V11.9984C2.40002 12.8821 3.11637 13.5984 4.00002 13.5984H5.60002C6.48368 13.5984 7.20002 12.8821 7.20002 11.9984V10.3984C7.20002 9.51478 6.48368 8.79844 5.60002 8.79844H4.00002Z" fill="#ACACAC"/>
<path d="M8.80002 3.99844C8.80002 3.11478 9.51637 2.39844 10.4 2.39844H12C12.8837 2.39844 13.6 3.11478 13.6 3.99844V5.59844C13.6 6.48209 12.8837 7.19844 12 7.19844H10.4C9.51637 7.19844 8.80002 6.48209 8.80002 5.59844V3.99844Z" fill="#ACACAC"/>
<path d="M8.80002 10.3984C8.80002 9.51478 9.51637 8.79844 10.4 8.79844H12C12.8837 8.79844 13.6 9.51478 13.6 10.3984V11.9984C13.6 12.8821 12.8837 13.5984 12 13.5984H10.4C9.51637 13.5984 8.80002 12.8821 8.80002 11.9984V10.3984Z" fill="#ACACAC"/>
</svg>
