<svg width="16" height="16" viewBox="0 0 16 16" fill="none" xmlns="http://www.w3.org/2000/svg">
<path fill-rule="evenodd" clip-rule="evenodd" d="M4.79998 1.60156C4.35815 1.60156 3.99998 1.95973 3.99998 2.40156V3.20156H3.19998C2.31632 3.20156 1.59998 3.91791 1.59998 4.80156V12.8016C1.59998 13.6852 2.31632 14.4016 3.19998 14.4016H12.8C13.6836 14.4016 14.4 13.6852 14.4 12.8016V4.80156C14.4 3.91791 13.6836 3.20156 12.8 3.20156H12V2.40156C12 1.95973 11.6418 1.60156 11.2 1.60156C10.7582 1.60156 10.4 1.95973 10.4 2.40156V3.20156H5.59998V2.40156C5.59998 1.95973 5.24181 1.60156 4.79998 1.60156ZM4.79998 5.60156C4.35815 5.60156 3.99998 5.95973 3.99998 6.40156C3.99998 6.84339 4.35815 7.20156 4.79998 7.20156H11.2C11.6418 7.20156 12 6.84339 12 6.40156C12 5.95973 11.6418 5.60156 11.2 5.60156H4.79998Z" fill="#ACACAC"/>
</svg>
