<svg width="16" height="16" viewBox="0 0 16 16" fill="none" xmlns="http://www.w3.org/2000/svg">
<path fill-rule="evenodd" clip-rule="evenodd" d="M7.99997 14.4016C11.5346 14.4016 14.4 11.5362 14.4 8.00156C14.4 4.46694 11.5346 1.60156 7.99997 1.60156C4.46535 1.60156 1.59998 4.46694 1.59998 8.00156C1.59998 11.5362 4.46535 14.4016 7.99997 14.4016ZM8.79997 4.80156C8.79997 4.35973 8.4418 4.00156 7.99997 4.00156C7.55814 4.00156 7.19997 4.35973 7.19997 4.80156V8.00156C7.19997 8.21374 7.28426 8.41722 7.43429 8.56725L9.69703 10.83C10.0094 11.1424 10.516 11.1424 10.8284 10.83C11.1408 10.5176 11.1408 10.011 10.8284 9.69862L8.79997 7.67019V4.80156Z" fill="#ACACAC"/>
</svg>
