<svg width="12" height="12" viewBox="0 0 12 12" fill="none" xmlns="http://www.w3.org/2000/svg">
<path d="M0.400024 1.19844C0.400024 0.75661 0.758197 0.398438 1.20002 0.398438H10.8C11.2419 0.398438 11.6 0.75661 11.6 1.19844V2.79844C11.6 3.24027 11.2419 3.59844 10.8 3.59844H1.20002C0.758197 3.59844 0.400024 3.24027 0.400024 2.79844V1.19844Z" fill="#ACACAC"/>
<path d="M0.400024 5.99844C0.400024 5.55661 0.758197 5.19844 1.20002 5.19844H6.00002C6.44185 5.19844 6.80002 5.55661 6.80002 5.99844V10.7984C6.80002 11.2403 6.44185 11.5984 6.00002 11.5984H1.20002C0.758197 11.5984 0.400024 11.2403 0.400024 10.7984V5.99844Z" fill="#ACACAC"/>
<path d="M9.20003 5.19844C8.7582 5.19844 8.40003 5.55661 8.40003 5.99844V10.7984C8.40003 11.2403 8.7582 11.5984 9.20003 11.5984H10.8C11.2419 11.5984 11.6 11.2403 11.6 10.7984V5.99844C11.6 5.55661 11.2419 5.19844 10.8 5.19844H9.20003Z" fill="#ACACAC"/>
</svg>
