<svg width="16" height="16" viewBox="0 0 16 16" fill="none" xmlns="http://www.w3.org/2000/svg">
<path d="M10.0686 3.67019C10.6934 3.04535 11.7065 3.04535 12.3313 3.67019C12.9562 4.29503 12.9562 5.30809 12.3313 5.93293L9.93133 8.33293C9.30649 8.95777 8.29343 8.95777 7.66859 8.33293C7.35617 8.02051 6.84964 8.02051 6.53722 8.33293C6.2248 8.64535 6.2248 9.15188 6.53722 9.4643C7.7869 10.714 9.81302 10.714 11.0627 9.4643L13.4627 7.0643C14.7124 5.81463 14.7124 3.7885 13.4627 2.53882C12.213 1.28914 10.1869 1.28914 8.93722 2.53882L7.73722 3.73882C7.4248 4.05124 7.4248 4.55777 7.73722 4.87019C8.04964 5.18261 8.55617 5.18261 8.86859 4.87019L10.0686 3.67019Z" fill="#ACACAC"/>
<path d="M6.0686 7.67019C6.69344 7.04535 7.70651 7.04535 8.33135 7.67019C8.64376 7.98261 9.1503 7.98261 9.46272 7.67019C9.77514 7.35777 9.77514 6.85124 9.46272 6.53882C8.21304 5.28914 6.18691 5.28914 4.93723 6.53882L2.53723 8.93882C1.28756 10.1885 1.28756 12.2146 2.53723 13.4643C3.78691 14.714 5.81304 14.714 7.06272 13.4643L8.26272 12.2643C8.57514 11.9519 8.57514 11.4454 8.26272 11.1329C7.9503 10.8205 7.44376 10.8205 7.13135 11.1329L5.93135 12.3329C5.30651 12.9578 4.29344 12.9578 3.6686 12.3329C3.04377 11.7081 3.04377 10.695 3.6686 10.0702L6.0686 7.67019Z" fill="#ACACAC"/>
</svg>
