<svg width="16" height="16" viewBox="0 0 16 16" fill="none" xmlns="http://www.w3.org/2000/svg">
<path fill-rule="evenodd" clip-rule="evenodd" d="M9.19135 2.53832C8.88813 1.28931 7.11182 1.28931 6.8086 2.53832C6.61272 3.34516 5.68833 3.72805 4.97931 3.29603C3.88172 2.62726 2.62567 3.88331 3.29445 4.98089C3.72646 5.68992 3.34357 6.61431 2.53673 6.81019C1.28772 7.1134 1.28772 8.88972 2.53673 9.19294C3.34357 9.38881 3.72646 10.3132 3.29445 11.0222C2.62568 12.1198 3.88172 13.3759 4.97931 12.7071C5.68834 12.2751 6.61272 12.658 6.8086 13.4648C7.11182 14.7138 8.88813 14.7138 9.19135 13.4648C9.38723 12.658 10.3116 12.2751 11.0206 12.7071C12.1182 13.3759 13.3743 12.1198 12.7055 11.0222C12.2735 10.3132 12.6564 9.38881 13.4632 9.19294C14.7122 8.88972 14.7122 7.1134 13.4632 6.81019C12.6564 6.61431 12.2735 5.68992 12.7055 4.98089C13.3743 3.88331 12.1182 2.62726 11.0206 3.29603C10.3116 3.72805 9.38723 3.34516 9.19135 2.53832ZM7.99998 10.4016C9.32546 10.4016 10.4 9.32705 10.4 8.00156C10.4 6.67608 9.32546 5.60156 7.99998 5.60156C6.67449 5.60156 5.59998 6.67608 5.59998 8.00156C5.59998 9.32705 6.67449 10.4016 7.99998 10.4016Z" fill="#858E96"/>
</svg>
